<?xml version="1.0" encoding="UTF-8"?>
<svg version="1.1" xmlns="http://www.w3.org/2000/svg" width="177" height="177">
<path d="M0 0 C58.41 0 116.82 0 177 0 C177 58.41 177 116.82 177 177 C118.59 177 60.18 177 0 177 C0 118.59 0 60.18 0 0 Z " fill="#6C938F" transform="translate(0,0)"/>
<path d="M0 0 C58.41 0 116.82 0 177 0 C177 58.41 177 116.82 177 177 C118.59 177 60.18 177 0 177 C0 118.59 0 60.18 0 0 Z M32 26 C31.08605469 26.82242187 30.17210938 27.64484375 29.23046875 28.4921875 C15.17038416 41.76367637 5.30733208 60.60042697 4.6015625 80.18359375 C4.58892352 82.26820549 4.5970802 84.35303692 4.625 86.4375 C4.63442627 87.53352539 4.64385254 88.62955078 4.65356445 89.75878906 C4.79945066 97.57735976 5.44571241 104.56281727 8 112 C8.35191406 113.06863281 8.70382813 114.13726562 9.06640625 115.23828125 C16.89316759 137.22037332 32.40690432 153.90785882 53.21484375 164.2734375 C71.59604801 172.94940351 96.3800537 174.21219957 115.6640625 167.77734375 C128.33786663 163.15113396 138.27898384 156.2859965 148 147 C148.61488281 146.45988281 149.22976562 145.91976562 149.86328125 145.36328125 C162.76463721 133.58894029 171.25130054 114.39072822 172.15136719 97.09057617 C172.68101253 82.61325039 172.95625197 69.40156693 167 56 C166.53078125 54.90816406 166.0615625 53.81632812 165.578125 52.69140625 C162.51149661 46.08826286 158.69128363 40.53936465 154 35 C153.52949219 34.39671875 153.05898437 33.7934375 152.57421875 33.171875 C140.46085683 18.02164206 121.01793486 8.41286784 102 6 C75.75033998 4.27367616 51.92695453 7.62108987 32 26 Z " fill="#293E3F" transform="translate(0,0)"/>
<path d="M0 0 C5.46287362 2.15541952 9.63430607 5.57861808 12 11 C12.74349204 16.63040323 12.801592 21.33743881 10.3125 26.5 C3.61620843 33.73923413 3.61620843 33.73923413 -1.390625 34.23828125 C-7.50938276 34.39710147 -11.20589638 34.20945684 -16 30 C-16.7425 29.360625 -17.485 28.72125 -18.25 28.0625 C-21.86426182 23.80283428 -22.45710125 19.6566907 -22.3125 14.20703125 C-21.44616581 8.08854604 -16.61407465 4.51070897 -12 1 C-8.2483423 -0.87582885 -4.08512416 -0.52557153 0 0 Z " fill="#B7673F" transform="translate(94,75)"/>
<path d="M0 0 C3.30279495 2.65593419 5.11092836 5.15571544 5.6953125 9.36328125 C6.28383158 15.24847208 5.660313 18.72010638 2.2421875 23.59765625 C-1.30744113 27.64925257 -4.8356247 29.17673359 -10.2421875 29.86328125 C-16.12810581 29.53184119 -20.7294498 27.01930037 -24.7421875 22.80078125 C-28.01187382 17.70007058 -28.06253991 12.24926832 -27.3046875 6.36328125 C-25.14201209 2.04658114 -21.04542799 -1.55999927 -16.5546875 -3.32421875 C-9.64019793 -4.28456452 -5.75754669 -4.00770407 0 0 Z " fill="#2F5A65" transform="translate(153.3046875,69.63671875)"/>
<path d="M0 0 C7.9975428 5.06684715 7.9975428 5.06684715 9.5859375 9.83203125 C10.24029261 16.01521284 10.40479798 21.65809124 6.5859375 26.83203125 C3.15268622 30.33041196 0.03879758 32.1460877 -4.9140625 32.33203125 C-9.85808528 32.01251957 -14.26540558 30.91945701 -17.921875 27.3671875 C-22.6879243 21.79771846 -22.82952932 17.92865376 -22.4140625 10.83203125 C-21.16464173 5.20963777 -17.07770589 2.69658162 -12.5390625 -0.48046875 C-7.96868254 -1.95912109 -4.29697637 -2.07895782 0 0 Z " fill="#627549" transform="translate(42.4140625,67.16796875)"/>
<path d="M0 0 C5.05875851 2.2419498 8.89950093 5.08281837 10.9375 10.3515625 C11.78973589 15.97028586 11.72037128 20.6653782 9.3125 25.8515625 C4.94312265 30.45090707 1.84272367 32.59083426 -4.5625 32.8515625 C-9.48040102 32.65804943 -12.32811017 31.72162161 -16.0625 28.3515625 C-20.38752073 23.44207951 -21.38607432 20.93090704 -21.0625 14.3515625 C-20.17524769 8.14079633 -17.59879993 5.55595546 -12.9375 1.734375 C-8.84596367 -1.28313304 -4.90110861 -1.54087884 0 0 Z " fill="#4F7672" transform="translate(129.0625,106.6484375)"/>
<path d="M0 0 C4.87806881 2.91428743 8.04000082 5.51453372 9.875 11.01953125 C10.26384133 16.85215123 9.93687389 20.85261906 6.875 26.01953125 C2.99240329 30.33035553 -0.8038208 32.42778269 -6.625 32.83203125 C-11.97664455 32.53430415 -14.9030529 30.66026846 -18.59765625 26.875 C-22.11697867 22.59960832 -22.57628978 18.64379424 -22.44140625 13.23046875 C-21.77251203 8.55646717 -19.00950278 5.81558375 -15.625 2.76953125 C-10.5858286 -0.75788873 -6.10862628 -2.8185022 0 0 Z " fill="#778853" transform="translate(60.125,106.98046875)"/>
<path d="M0 0 C4.59047821 2.63527453 7.99478431 6.17706863 10.375 10.9375 C10.98132168 16.79860953 10.32693918 20.32101511 6.91796875 25.171875 C3.84671904 28.68631771 0.77452539 30.57317415 -3.86328125 31.27734375 C-8.82266387 31.48572117 -12.42967091 30.76690799 -16.625 27.9375 C-18.875 25.5 -18.875 25.5 -20.625 22.9375 C-21.0375 22.339375 -21.45 21.74125 -21.875 21.125 C-23.3485582 16.8271219 -23.47137292 12.942641 -21.71484375 8.78125 C-16.514192 -0.18193115 -9.88638163 -2.89773255 0 0 Z " fill="#2F5965" transform="translate(73.625,36.0625)"/>
<path d="M0 0 C4.83237895 4.34914105 6.63266135 7.92642246 7 14.4375 C6.96422544 18.93317033 6.2578542 21.34545509 3.375 24.8125 C-0.36840743 28.46606565 -3.30955795 30.05952585 -8.59375 30.375 C-14.45720497 30.2143574 -17.76480414 28.13382059 -21.90234375 24.0703125 C-25.47215379 20.00299837 -26.06425451 15.89320759 -25.94921875 10.6015625 C-25.13604512 6.34477533 -22.67530448 3.12223855 -19.5 0.25 C-13.29183053 -2.89506275 -6.20474518 -3.10237259 0 0 Z " fill="#446046" transform="translate(122.5,37.75)"/>
</svg>
