<?xml version="1.0" encoding="UTF-8"?>
<!DOCTYPE svg PUBLIC "-//W3C//DTD SVG 1.1//EN" "http://www.w3.org/Graphics/SVG/1.1/DTD/svg11.dtd">
<svg xmlns="http://www.w3.org/2000/svg" version="1.1" width="190px" height="190px" style="shape-rendering:geometricPrecision; text-rendering:geometricPrecision; image-rendering:optimizeQuality; fill-rule:evenodd; clip-rule:evenodd" xmlns:xlink="http://www.w3.org/1999/xlink">
<g><path style="opacity:1" fill="#92939a" d="M -0.5,-0.5 C 62.8333,-0.5 126.167,-0.5 189.5,-0.5C 189.5,22.1667 189.5,44.8333 189.5,67.5C 187.833,67.5 186.167,67.5 184.5,67.5C 183.838,63.5341 183.505,59.5341 183.5,55.5C 185.288,55.7852 186.955,55.4519 188.5,54.5C 187.625,52.2275 185.958,51.2275 183.5,51.5C 183.5,48.8333 183.5,46.1667 183.5,43.5C 180.833,43.5 178.167,43.5 175.5,43.5C 175.5,40.8333 175.5,38.1667 175.5,35.5C 172.833,35.5 170.167,35.5 167.5,35.5C 167.5,34.1667 167.5,32.8333 167.5,31.5C 166.167,31.5 164.833,31.5 163.5,31.5C 163.5,30.1667 163.5,28.8333 163.5,27.5C 162.167,27.5 160.833,27.5 159.5,27.5C 160.053,24.2064 159.053,22.5397 156.5,22.5C 157.5,21.8333 158.5,21.1667 159.5,20.5C 158.265,17.9557 157.099,17.9557 156,20.5C 153.2,19.8747 150.366,19.208 147.5,18.5C 146.167,14.5 144.833,14.5 143.5,18.5C 141.016,20.0958 138.516,20.4291 136,19.5C 134.624,19.6842 133.791,20.3509 133.5,21.5C 101.97,5.80185 72.3029,8.46852 44.5,29.5C 30.5759,40.6756 20.5759,54.6756 14.5,71.5C 12.0181,69.4973 11.0181,66.8306 11.5,63.5C 10.1667,63.5 8.83333,63.5 7.5,63.5C 6.90104,67.574 7.90104,71.074 10.5,74C 10.9434,75.825 11.2767,77.6583 11.5,79.5C 10.1667,79.5 8.83333,79.5 7.5,79.5C 7.05484,82.3646 7.7215,84.8646 9.5,87C 6.97203,88.0174 6.97203,89.1841 9.5,90.5C 7.56164,99.9734 6.89498,109.64 7.5,119.5C 4.83333,119.5 2.16667,119.5 -0.5,119.5C -0.5,79.5 -0.5,39.5 -0.5,-0.5 Z"/></g>
<g><path style="opacity:1" fill="#9999a2" d="M 189.5,67.5 C 189.5,96.1667 189.5,124.833 189.5,153.5C 187.132,155.956 186.132,158.956 186.5,162.5C 187.5,162.5 188.5,162.5 189.5,162.5C 189.5,165.833 189.5,169.167 189.5,172.5C 181.826,172.334 174.159,172.5 166.5,173C 162.575,174.784 161.575,177.617 163.5,181.5C 163.38,182.586 162.713,183.253 161.5,183.5C 157.946,182.279 154.446,182.279 151,183.5C 149.619,181.365 148.619,179.032 148,176.5C 143.255,173.638 138.089,172.805 132.5,174C 131.347,175.883 129.681,176.716 127.5,176.5C 127.5,177.5 127.5,178.5 127.5,179.5C 124.801,179.466 122.301,180.133 120,181.5C 114.397,180.534 108.897,179.534 103.5,178.5C 141.116,172.713 165.616,151.713 177,115.5C 184.892,75.6474 171.725,44.9808 137.5,23.5C 136.167,22.8333 134.833,22.1667 133.5,21.5C 133.791,20.3509 134.624,19.6842 136,19.5C 138.516,20.4291 141.016,20.0958 143.5,18.5C 144.833,14.5 146.167,14.5 147.5,18.5C 150.366,19.208 153.2,19.8747 156,20.5C 157.099,17.9557 158.265,17.9557 159.5,20.5C 158.5,21.1667 157.5,21.8333 156.5,22.5C 159.053,22.5397 160.053,24.2064 159.5,27.5C 160.833,27.5 162.167,27.5 163.5,27.5C 163.5,28.8333 163.5,30.1667 163.5,31.5C 164.833,31.5 166.167,31.5 167.5,31.5C 167.5,32.8333 167.5,34.1667 167.5,35.5C 170.167,35.5 172.833,35.5 175.5,35.5C 175.5,38.1667 175.5,40.8333 175.5,43.5C 178.167,43.5 180.833,43.5 183.5,43.5C 183.5,46.1667 183.5,48.8333 183.5,51.5C 185.958,51.2275 187.625,52.2275 188.5,54.5C 186.955,55.4519 185.288,55.7852 183.5,55.5C 183.505,59.5341 183.838,63.5341 184.5,67.5C 186.167,67.5 187.833,67.5 189.5,67.5 Z"/></g>
<g><path style="opacity:1" fill="#f0eedf" d="M 150.5,70.5 C 149.535,69.1242 148.535,67.7908 147.5,66.5C 147.631,65.7611 147.464,65.0944 147,64.5C 145.334,65.3402 145.167,64.8402 146.5,63C 144.824,61.8231 143.491,60.3231 142.5,58.5C 142.709,57.914 143.043,57.414 143.5,57C 142.258,56.6886 141.258,57.1886 140.5,58.5C 138.65,57.7582 137.984,56.7582 138.5,55.5C 136.804,57.5456 135.471,59.8789 134.5,62.5C 133.485,59.8323 131.818,59.1656 129.5,60.5C 129.846,61.6956 130.346,61.6956 131,60.5C 131.309,61.7659 131.809,62.9326 132.5,64C 130.67,64.1816 129.003,63.6816 127.5,62.5C 124.801,60.2254 122.634,60.892 121,64.5C 120.805,62.7928 120.805,61.1261 121,59.5C 120.085,60.3279 119.419,61.3279 119,62.5C 118.514,58.5236 116.681,55.3569 113.5,53C 115.854,50.31 115.187,49.81 111.5,51.5C 110.207,50.158 109.374,48.4913 109,46.5C 107.43,46.67 105.597,47.0033 103.5,47.5C 103.752,44.7562 103.085,42.2562 101.5,40C 104.044,34.9246 102.378,31.7579 96.5,30.5C 95.1861,31.3128 94.0195,32.3128 93,33.5C 91.4259,32.1524 89.5925,31.4858 87.5,31.5C 84.8536,32.2135 82.3536,32.2135 80,31.5C 75.0312,32.8238 70.0312,34.1571 65,35.5C 63.8315,36.0085 62.9981,36.8419 62.5,38C 63.3802,39.3561 63.7135,40.8561 63.5,42.5C 61.6096,42.2965 60.1096,42.9632 59,44.5C 57.6012,44.4988 56.1012,44.1654 54.5,43.5C 53.5853,44.3279 52.9186,45.3279 52.5,46.5C 53.8333,47.5 53.8333,48.5 52.5,49.5C 52.9767,50.4776 53.6433,51.3109 54.5,52C 53.1279,53.2419 52.1279,54.7419 51.5,56.5C 52.2739,57.7112 53.1072,57.7112 54,56.5C 55.5492,58.6181 56.7158,60.9515 57.5,63.5C 59.4944,60.8502 60.4944,57.8502 60.5,54.5C 62.1033,54.3118 63.4366,54.8118 64.5,56C 62.7468,58.3901 61.0801,60.8901 59.5,63.5C 61.0123,64.6006 62.5123,64.2673 64,62.5C 65.7398,63.7158 66.7398,65.3825 67,67.5C 67.3333,67.1667 67.6667,66.8333 68,66.5C 68.6776,68.5976 68.5109,70.5976 67.5,72.5C 63.5699,71.5627 63.5699,70.5627 67.5,69.5C 67.3333,69.1667 67.1667,68.8333 67,68.5C 66.2825,69.4506 65.4491,69.6172 64.5,69C 63.7894,67.7453 62.956,66.5786 62,65.5C 62.7676,67.818 61.9343,69.6513 59.5,71C 60.624,71.2492 61.624,71.7492 62.5,72.5C 61.3595,73.4255 61.3595,74.2588 62.5,75C 60.9194,75.7065 59.4194,76.5399 58,77.5C 57.1349,75.1122 57.9683,73.6122 60.5,73C 59.5,72.6667 58.5,72.3333 57.5,72C 57.9437,70.4667 58.277,68.9667 58.5,67.5C 57.277,66.3861 55.9437,66.2195 54.5,67C 56.5828,68.3204 56.2494,69.6538 53.5,71C 54.1667,71.3333 54.8333,71.6667 55.5,72C 54.1667,72.6667 54.1667,73.3333 55.5,74C 54.4642,75.6169 53.2975,75.7836 52,74.5C 52.5356,72.553 52.2022,70.553 51,68.5C 50.7811,69.938 50.2811,71.2713 49.5,72.5C 48.1054,71.1854 47.1054,71.5188 46.5,73.5C 47.7582,72.9836 48.7582,73.6503 49.5,75.5C 49.1924,76.3081 48.6924,76.9747 48,77.5C 46.3246,75.2268 45.158,72.7268 44.5,70C 46.0374,67.6872 46.5374,65.1872 46,62.5C 45.3292,61.7476 44.4959,61.4142 43.5,61.5C 45.8762,52.2452 50.2096,44.0785 56.5,37C 58.8864,35.8068 61.2198,34.6401 63.5,33.5C 70.7712,29.3551 78.6045,27.3551 87,27.5C 101.07,27.4614 114.57,29.2948 127.5,33C 128.009,35.5697 129.009,37.9031 130.5,40C 129.235,44.4745 129.901,44.6411 132.5,40.5C 133.354,41.5217 134.354,42.3551 135.5,43C 133.385,43.4244 132.552,44.5911 133,46.5C 134,45.8333 135,45.1667 136,44.5C 141.312,49.3368 145.812,55.5035 149.5,63C 149.167,63.3333 148.833,63.6667 148.5,64C 150.568,66.0101 151.234,68.1768 150.5,70.5 Z"/></g>
<g><path style="opacity:1" fill="#292839" d="M 133.5,21.5 C 134.833,22.1667 136.167,22.8333 137.5,23.5C 136.833,26.1667 136.167,28.8333 135.5,31.5C 139.815,32.3062 142.815,34.8062 144.5,39C 147.379,39.9574 149.879,39.4574 152,37.5C 153.57,40.6335 153.903,43.9668 153,47.5C 151.592,43.7366 149.092,42.7366 145.5,44.5C 127.007,26.8362 105.007,19.6695 79.5,23C 74.0652,24.3064 69.0652,26.4731 64.5,29.5C 62.9505,30.4408 61.2838,31.1075 59.5,31.5C 55.2284,30.9867 51.3951,31.9867 48,34.5C 47.228,34.3552 46.5613,34.0219 46,33.5C 45.79,31.9419 45.29,30.6085 44.5,29.5C 72.3029,8.46852 101.97,5.80185 133.5,21.5 Z"/></g>
<g><path style="opacity:1" fill="#b7b8bc" d="M 145.5,44.5 C 147.909,46.9024 149.909,49.5691 151.5,52.5C 151.5,53.5 151.5,54.5 151.5,55.5C 150.5,55.5 149.5,55.5 148.5,55.5C 148.351,56.552 148.517,57.552 149,58.5C 149.667,57.1667 150.333,57.1667 151,58.5C 151.494,60.1341 151.66,61.8008 151.5,63.5C 152.552,63.3505 153.552,63.5172 154.5,64C 153.565,66.3806 153.232,68.8806 153.5,71.5C 152.209,71.7373 151.209,71.404 150.5,70.5C 151.234,68.1768 150.568,66.0101 148.5,64C 148.833,63.6667 149.167,63.3333 149.5,63C 145.812,55.5035 141.312,49.3368 136,44.5C 135,45.1667 134,45.8333 133,46.5C 132.552,44.5911 133.385,43.4244 135.5,43C 134.354,42.3551 133.354,41.5217 132.5,40.5C 129.901,44.6411 129.235,44.4745 130.5,40C 129.009,37.9031 128.009,35.5697 127.5,33C 114.57,29.2948 101.07,27.4614 87,27.5C 78.6045,27.3551 70.7712,29.3551 63.5,33.5C 63.8333,32.1667 64.1667,30.8333 64.5,29.5C 69.0652,26.4731 74.0652,24.3064 79.5,23C 105.007,19.6695 127.007,26.8362 145.5,44.5 Z"/></g>
<g><path style="opacity:1" fill="#32323b" d="M -0.5,147.5 C 3.22585,148.056 5.55918,150.222 6.5,154C 5.18956,157.145 2.85623,158.978 -0.5,159.5C -0.5,155.5 -0.5,151.5 -0.5,147.5 Z"/></g>
<g><path style="opacity:1" fill="#282630" d="M 189.5,153.5 C 189.5,156.5 189.5,159.5 189.5,162.5C 188.5,162.5 187.5,162.5 186.5,162.5C 186.132,158.956 187.132,155.956 189.5,153.5 Z"/></g>
<g><path style="opacity:1" fill="#93949e" d="M 14.5,71.5 C 5.27064,116.537 20.9373,149.704 61.5,171C 74.9011,176.914 88.9011,179.414 103.5,178.5C 108.897,179.534 114.397,180.534 120,181.5C 122.301,180.133 124.801,179.466 127.5,179.5C 127.5,178.5 127.5,177.5 127.5,176.5C 129.681,176.716 131.347,175.883 132.5,174C 138.089,172.805 143.255,173.638 148,176.5C 148.619,179.032 149.619,181.365 151,183.5C 154.446,182.279 157.946,182.279 161.5,183.5C 162.713,183.253 163.38,182.586 163.5,181.5C 164.289,181.783 164.956,182.283 165.5,183C 173.493,183.5 181.493,183.666 189.5,183.5C 189.5,185.5 189.5,187.5 189.5,189.5C 126.167,189.5 62.8333,189.5 -0.5,189.5C -0.5,187.5 -0.5,185.5 -0.5,183.5C 7.50694,183.666 15.5069,183.5 23.5,183C 28.6696,180.787 29.6696,177.454 26.5,173C 17.5062,172.5 8.50617,172.334 -0.5,172.5C -0.5,168.167 -0.5,163.833 -0.5,159.5C 2.85623,158.978 5.18956,157.145 6.5,154C 5.55918,150.222 3.22585,148.056 -0.5,147.5C -0.5,138.167 -0.5,128.833 -0.5,119.5C 2.16667,119.5 4.83333,119.5 7.5,119.5C 6.89498,109.64 7.56164,99.9734 9.5,90.5C 6.97203,89.1841 6.97203,88.0174 9.5,87C 7.7215,84.8646 7.05484,82.3646 7.5,79.5C 8.83333,79.5 10.1667,79.5 11.5,79.5C 11.2767,77.6583 10.9434,75.825 10.5,74C 7.90104,71.074 6.90104,67.574 7.5,63.5C 8.83333,63.5 10.1667,63.5 11.5,63.5C 11.0181,66.8306 12.0181,69.4973 14.5,71.5 Z"/></g>
<g><path style="opacity:1" fill="#292a37" d="M 137.5,23.5 C 171.725,44.9808 184.892,75.6474 177,115.5C 165.616,151.713 141.116,172.713 103.5,178.5C 88.9011,179.414 74.9011,176.914 61.5,171C 20.9373,149.704 5.27064,116.537 14.5,71.5C 20.5759,54.6756 30.5759,40.6756 44.5,29.5C 45.29,30.6085 45.79,31.9419 46,33.5C 46.5613,34.0219 47.228,34.3552 48,34.5C 51.3951,31.9867 55.2284,30.9867 59.5,31.5C 41.7151,41.9667 30.3817,57.3001 25.5,77.5C 18.7913,108.897 28.458,133.73 54.5,152C 71.2075,162.956 89.5408,166.956 109.5,164C 149.753,153.341 168.92,127.174 167,85.5C 166.79,83.9419 166.29,82.6085 165.5,81.5C 164.389,73.2637 161.556,65.5971 157,58.5C 155.383,56.2368 153.55,54.2368 151.5,52.5C 149.909,49.5691 147.909,46.9024 145.5,44.5C 149.092,42.7366 151.592,43.7366 153,47.5C 153.903,43.9668 153.57,40.6335 152,37.5C 149.879,39.4574 147.379,39.9574 144.5,39C 142.815,34.8062 139.815,32.3062 135.5,31.5C 136.167,28.8333 136.833,26.1667 137.5,23.5 Z"/></g>
<g><path style="opacity:1" fill="#a2a5aa" d="M 64.5,29.5 C 64.1667,30.8333 63.8333,32.1667 63.5,33.5C 61.2198,34.6401 58.8864,35.8068 56.5,37C 50.2096,44.0785 45.8762,52.2452 43.5,61.5C 41.7431,62.0843 40.4098,63.251 39.5,65C 38.9591,68.5199 37.6257,71.6865 35.5,74.5C 36.1667,74.8333 36.8333,75.1667 37.5,75.5C 36.3595,76.4255 36.3595,77.2588 37.5,78C 36.2624,77.9227 35.2624,78.0894 34.5,78.5C 37.0756,79.8834 36.7423,80.7167 33.5,81C 35.3348,81.9277 35.6682,83.0944 34.5,84.5C 35.8532,85.5237 36.5198,86.857 36.5,88.5C 37.552,88.6495 38.552,88.4828 39.5,88C 38.0439,87.5774 37.5439,86.7441 38,85.5C 38.6667,86.8333 39.3333,86.8333 40,85.5C 40.2321,86.7375 40.7321,87.7375 41.5,88.5C 42.3497,90.4944 42.8497,92.4944 43,94.5C 41.575,95.2123 40.075,95.379 38.5,95C 39.9597,95.8113 40.293,96.6446 39.5,97.5C 38.1667,96.5 36.8333,95.5 35.5,94.5C 35.1667,94.8333 34.8333,95.1667 34.5,95.5C 36.4372,97.763 38.2706,99.4297 40,100.5C 40.6667,99.8333 41.3333,99.1667 42,98.5C 42.7175,99.4506 43.5509,99.6172 44.5,99C 45.5734,97.4056 46.5734,95.9056 47.5,94.5C 47.7486,95.5821 47.9152,96.9154 48,98.5C 49.3033,99.1122 50.4699,99.4455 51.5,99.5C 49.0188,100.86 49.3522,101.86 52.5,102.5C 53.1667,101.5 53.8333,100.5 54.5,99.5C 55.5896,100.391 55.5896,101.391 54.5,102.5C 56.0778,103.072 57.5778,103.406 59,103.5C 59.3052,101.443 59.3052,99.4432 59,97.5C 61.0581,98.1095 61.8914,99.1095 61.5,100.5C 62.4776,100.023 63.3109,99.3567 64,98.5C 64.4453,100.594 63.612,102.094 61.5,103C 63.5095,102.406 65.5095,102.573 67.5,103.5C 68.8333,102.833 70.1667,102.167 71.5,101.5C 72.7164,102.002 73.8831,102.335 75,102.5C 74.8497,100.494 74.3497,98.4944 73.5,96.5C 75.4788,97.8121 77.1455,99.4788 78.5,101.5C 77.5,102.333 76.5,103.167 75.5,104C 76.5156,104.519 77.1822,105.353 77.5,106.5C 74.9634,113.443 72.63,120.443 70.5,127.5C 70.6618,131.326 72.6618,132.993 76.5,132.5C 73.6792,134.811 70.8459,134.811 68,132.5C 68.4445,129.61 68.4445,126.943 68,124.5C 66.9008,121.961 65.2342,121.295 63,122.5C 62.3828,121.551 62.5494,120.718 63.5,120C 61.6927,119.072 60.026,117.906 58.5,116.5C 57.8333,116.833 57.1667,117.167 56.5,117.5C 55.7379,116.372 55.0712,115.205 54.5,114C 56.0662,111.323 55.3995,109.99 52.5,110C 53.7836,111.297 53.6169,112.464 52,113.5C 51.6667,112.5 51.3333,111.5 51,110.5C 48.5463,111.198 46.2129,112.198 44,113.5C 43.2496,112.874 42.4162,112.374 41.5,112C 41.8333,111.667 42.1667,111.333 42.5,111C 41.5,110.667 40.5,110.333 39.5,110C 39.6158,108.732 39.9491,107.398 40.5,106C 38.2199,105.788 36.2199,104.955 34.5,103.5C 33.914,103.709 33.414,104.043 33,104.5C 30.6519,100.252 31.1519,96.4186 34.5,93C 32.8659,92.5065 31.1992,92.3398 29.5,92.5C 29.8762,88.3802 30.3762,84.3802 31,80.5C 28.901,79.8695 27.0677,78.8695 25.5,77.5C 30.3817,57.3001 41.7151,41.9667 59.5,31.5C 61.2838,31.1075 62.9505,30.4408 64.5,29.5 Z"/></g>
<g><path style="opacity:1" fill="#9da1a9" d="M 151.5,52.5 C 153.55,54.2368 155.383,56.2368 157,58.5C 161.556,65.5971 164.389,73.2637 165.5,81.5C 165.662,83.5273 165.495,85.5273 165,87.5C 164.667,86.8333 164.333,86.1667 164,85.5C 162.902,86.9675 161.402,87.8008 159.5,88C 164.797,89.1342 164.797,89.9675 159.5,90.5C 159.587,93.5983 159.087,93.9316 158,91.5C 157.51,92.7932 157.343,94.1266 157.5,95.5C 152.78,95.2254 152.446,96.0588 156.5,98C 155.572,98.3879 154.905,99.0546 154.5,100C 155.424,101.15 155.424,102.15 154.5,103C 156.134,103.494 157.801,103.66 159.5,103.5C 159.313,108.845 158.98,114.178 158.5,119.5C 153.5,119.5 148.5,119.5 143.5,119.5C 143.5,124.833 143.5,130.167 143.5,135.5C 140.833,135.5 138.167,135.5 135.5,135.5C 135.5,136.833 135.5,138.167 135.5,139.5C 127.5,139.5 119.5,139.5 111.5,139.5C 111.762,140.978 111.429,142.311 110.5,143.5C 108.669,138.414 109.669,134.08 113.5,130.5C 113.567,129.041 113.234,127.708 112.5,126.5C 115.127,127.092 117.794,127.425 120.5,127.5C 118.424,119.338 115.758,111.338 112.5,103.5C 114.024,101.142 116.024,99.3088 118.5,98C 117.978,97.4387 117.645,96.772 117.5,96C 118.687,93.2764 119.353,90.4431 119.5,87.5C 120.492,87.3284 121.158,87.6618 121.5,88.5C 120.027,92.3882 119.527,96.3882 120,100.5C 120.23,96.7868 121.397,96.1201 123.5,98.5C 124.478,98.0233 125.311,97.3567 126,96.5C 126.556,98.5951 127.056,98.7618 127.5,97C 123.994,94.57 123.827,92.07 127,89.5C 126.689,90.9346 126.855,92.2679 127.5,93.5C 128.833,93.8333 130.167,94.1667 131.5,94.5C 130.5,95.8333 129.5,97.1667 128.5,98.5C 131.228,99.9402 133.395,99.2735 135,96.5C 136,97.8333 137,97.8333 138,96.5C 137.695,98.4432 137.695,100.443 138,102.5C 139,101.167 140,101.167 141,102.5C 141.311,101.258 140.811,100.258 139.5,99.5C 141.204,97.3984 142.537,95.0651 143.5,92.5C 141.535,89.3882 140.535,86.2216 140.5,83C 141.448,82.5172 142.448,82.3505 143.5,82.5C 143.67,83.8221 143.337,84.9887 142.5,86C 145.857,87.0105 149.191,87.6772 152.5,88C 151.78,85.8777 150.613,85.3777 149,86.5C 148.517,85.552 148.351,84.552 148.5,83.5C 149.675,83.719 150.675,83.3857 151.5,82.5C 151.167,82.1667 150.833,81.8333 150.5,81.5C 148.261,83.1205 146.427,82.7871 145,80.5C 140.566,81.3377 140.399,80.5043 144.5,78C 143.833,76.6667 142.833,75.6667 141.5,75C 142.667,74.5 143.5,73.6667 144,72.5C 144.667,73.8333 145.333,75.1667 146,76.5C 148.882,74.081 148.382,72.081 144.5,70.5C 143.416,70.685 142.416,71.0183 141.5,71.5C 141.824,68.0581 143.491,67.0581 146.5,68.5C 147.298,68.0431 147.631,67.3764 147.5,66.5C 148.535,67.7908 149.535,69.1242 150.5,70.5C 151.209,71.404 152.209,71.7373 153.5,71.5C 153.232,68.8806 153.565,66.3806 154.5,64C 153.552,63.5172 152.552,63.3505 151.5,63.5C 151.66,61.8008 151.494,60.1341 151,58.5C 150.333,57.1667 149.667,57.1667 149,58.5C 148.517,57.552 148.351,56.552 148.5,55.5C 149.5,55.5 150.5,55.5 151.5,55.5C 151.5,54.5 151.5,53.5 151.5,52.5 Z"/></g>
<g><path style="opacity:1" fill="#f4f5f5" d="M 111.5,67.5 C 114.365,68.1912 116.532,69.8579 118,72.5C 119.045,76.6062 120.045,80.6062 121,84.5C 120.667,84.1667 120.333,83.8333 120,83.5C 119.51,84.7932 119.343,86.1266 119.5,87.5C 119.353,90.4431 118.687,93.2764 117.5,96C 117.645,96.772 117.978,97.4387 118.5,98C 116.024,99.3088 114.024,101.142 112.5,103.5C 115.758,111.338 118.424,119.338 120.5,127.5C 117.794,127.425 115.127,127.092 112.5,126.5C 107.309,116.119 104.309,105.286 103.5,94C 105.058,93.79 106.391,93.29 107.5,92.5C 111.829,86.1698 113.496,79.1698 112.5,71.5C 112.567,70.0413 112.234,68.7079 111.5,67.5 Z"/></g>
<g><path style="opacity:1" fill="#9b9fab" d="M 25.5,77.5 C 27.0677,78.8695 28.901,79.8695 31,80.5C 30.3762,84.3802 29.8762,88.3802 29.5,92.5C 31.1992,92.3398 32.8659,92.5065 34.5,93C 31.1519,96.4186 30.6519,100.252 33,104.5C 33.414,104.043 33.914,103.709 34.5,103.5C 36.2199,104.955 38.2199,105.788 40.5,106C 39.9491,107.398 39.6158,108.732 39.5,110C 40.5,110.333 41.5,110.667 42.5,111C 42.1667,111.333 41.8333,111.667 41.5,112C 42.4162,112.374 43.2496,112.874 44,113.5C 46.2129,112.198 48.5463,111.198 51,110.5C 51.3333,111.5 51.6667,112.5 52,113.5C 53.6169,112.464 53.7836,111.297 52.5,110C 55.3995,109.99 56.0662,111.323 54.5,114C 55.0712,115.205 55.7379,116.372 56.5,117.5C 57.1667,117.167 57.8333,116.833 58.5,116.5C 60.026,117.906 61.6927,119.072 63.5,120C 62.5494,120.718 62.3828,121.551 63,122.5C 65.2342,121.295 66.9008,121.961 68,124.5C 68.4445,126.943 68.4445,129.61 68,132.5C 70.8459,134.811 73.6792,134.811 76.5,132.5C 77.7777,132.218 78.7777,131.551 79.5,130.5C 90.6706,131.529 102.004,131.529 113.5,130.5C 109.669,134.08 108.669,138.414 110.5,143.5C 111.429,142.311 111.762,140.978 111.5,139.5C 119.5,139.5 127.5,139.5 135.5,139.5C 135.5,138.167 135.5,136.833 135.5,135.5C 138.167,135.5 140.833,135.5 143.5,135.5C 143.5,130.167 143.5,124.833 143.5,119.5C 148.5,119.5 153.5,119.5 158.5,119.5C 158.98,114.178 159.313,108.845 159.5,103.5C 157.801,103.66 156.134,103.494 154.5,103C 155.424,102.15 155.424,101.15 154.5,100C 154.905,99.0546 155.572,98.3879 156.5,98C 152.446,96.0588 152.78,95.2254 157.5,95.5C 157.343,94.1266 157.51,92.7932 158,91.5C 159.087,93.9316 159.587,93.5983 159.5,90.5C 164.797,89.9675 164.797,89.1342 159.5,88C 161.402,87.8008 162.902,86.9675 164,85.5C 164.333,86.1667 164.667,86.8333 165,87.5C 165.495,85.5273 165.662,83.5273 165.5,81.5C 166.29,82.6085 166.79,83.9419 167,85.5C 168.92,127.174 149.753,153.341 109.5,164C 89.5408,166.956 71.2075,162.956 54.5,152C 28.458,133.73 18.7913,108.897 25.5,77.5 Z"/></g>
<g><path style="opacity:1" fill="#b4b6b4" d="M 70.5,92.5 C 72.2624,93.2623 73.2624,94.5956 73.5,96.5C 74.3497,98.4944 74.8497,100.494 75,102.5C 73.8831,102.335 72.7164,102.002 71.5,101.5C 70.1667,102.167 68.8333,102.833 67.5,103.5C 65.5095,102.573 63.5095,102.406 61.5,103C 63.612,102.094 64.4453,100.594 64,98.5C 63.3109,99.3567 62.4776,100.023 61.5,100.5C 61.8914,99.1095 61.0581,98.1095 59,97.5C 59.3052,99.4432 59.3052,101.443 59,103.5C 57.5778,103.406 56.0778,103.072 54.5,102.5C 55.5896,101.391 55.5896,100.391 54.5,99.5C 53.8333,100.5 53.1667,101.5 52.5,102.5C 49.3522,101.86 49.0188,100.86 51.5,99.5C 50.4699,99.4455 49.3033,99.1122 48,98.5C 47.9152,96.9154 47.7486,95.5821 47.5,94.5C 46.5734,95.9056 45.5734,97.4056 44.5,99C 43.5509,99.6172 42.7175,99.4506 42,98.5C 41.3333,99.1667 40.6667,99.8333 40,100.5C 38.2706,99.4297 36.4372,97.763 34.5,95.5C 34.8333,95.1667 35.1667,94.8333 35.5,94.5C 36.8333,95.5 38.1667,96.5 39.5,97.5C 40.293,96.6446 39.9597,95.8113 38.5,95C 40.075,95.379 41.575,95.2123 43,94.5C 42.8497,92.4944 42.3497,90.4944 41.5,88.5C 42.2625,87.7321 43.2625,87.2321 44.5,87C 44.1667,86.6667 43.8333,86.3333 43.5,86C 45.2735,85.1192 45.9402,83.9525 45.5,82.5C 47.6184,84.0235 49.6184,85.6901 51.5,87.5C 49.9893,89.8375 50.3227,90.5042 52.5,89.5C 53.1924,90.0253 53.6924,90.6919 54,91.5C 54.1805,89.5116 54.0138,87.5116 53.5,85.5C 57.3107,85.4042 57.3107,84.7376 53.5,83.5C 56.2017,82.9722 58.0351,84.3055 59,87.5C 59.7805,88.9437 59.6139,90.277 58.5,91.5C 57.7492,90.624 57.2492,89.624 57,88.5C 56.2115,90.1647 55.8782,91.8314 56,93.5C 57.425,92.7877 58.925,92.621 60.5,93C 61.1905,91.9326 61.6905,90.7659 62,89.5C 63.5644,91.6303 63.5644,93.6303 62,95.5C 60.1598,94.1669 59.6598,94.3335 60.5,96C 63.7077,94.664 67.041,93.4973 70.5,92.5 Z"/></g>
<g><path style="opacity:1" fill="#28293b" d="M 86.5,91.5 C 93.5433,91.2803 100.543,91.6136 107.5,92.5C 106.391,93.29 105.058,93.79 103.5,94C 104.309,105.286 107.309,116.119 112.5,126.5C 113.234,127.708 113.567,129.041 113.5,130.5C 102.004,131.529 90.6706,131.529 79.5,130.5C 82.4214,120.898 85.2547,111.232 88,101.5C 88.8907,98.5024 88.3907,95.8357 86.5,93.5C 86.5,92.8333 86.5,92.1667 86.5,91.5 Z"/></g>
<g><path style="opacity:1" fill="#b4b7b8" d="M 121.5,88.5 C 122.552,88.6495 123.552,88.4828 124.5,88C 123.76,86.2151 123.093,84.3817 122.5,82.5C 123.391,81.4104 124.391,81.4104 125.5,82.5C 126.773,81.7435 126.773,81.0768 125.5,80.5C 125.735,79.9033 126.235,79.5699 127,79.5C 128.168,80.5089 129.335,81.5089 130.5,82.5C 131.594,81.132 131.26,79.9653 129.5,79C 130.676,77.0858 131.676,77.2524 132.5,79.5C 132.833,79.1667 133.167,78.8333 133.5,78.5C 132.407,76.6508 131.074,74.9842 129.5,73.5C 129.833,73.1667 130.167,72.8333 130.5,72.5C 131.833,73.5 133.167,74.5 134.5,75.5C 134.64,74.2361 134.64,73.0695 134.5,72C 136.176,72.4342 137.843,73.2676 139.5,74.5C 140.711,73.7261 140.711,72.8928 139.5,72C 140.094,71.5357 140.761,71.369 141.5,71.5C 142.416,71.0183 143.416,70.685 144.5,70.5C 148.382,72.081 148.882,74.081 146,76.5C 145.333,75.1667 144.667,73.8333 144,72.5C 143.5,73.6667 142.667,74.5 141.5,75C 142.833,75.6667 143.833,76.6667 144.5,78C 140.399,80.5043 140.566,81.3377 145,80.5C 146.427,82.7871 148.261,83.1205 150.5,81.5C 150.833,81.8333 151.167,82.1667 151.5,82.5C 150.675,83.3857 149.675,83.719 148.5,83.5C 148.351,84.552 148.517,85.552 149,86.5C 150.613,85.3777 151.78,85.8777 152.5,88C 149.191,87.6772 145.857,87.0105 142.5,86C 143.337,84.9887 143.67,83.8221 143.5,82.5C 142.448,82.3505 141.448,82.5172 140.5,83C 140.535,86.2216 141.535,89.3882 143.5,92.5C 142.537,95.0651 141.204,97.3984 139.5,99.5C 140.811,100.258 141.311,101.258 141,102.5C 140,101.167 139,101.167 138,102.5C 137.695,100.443 137.695,98.4432 138,96.5C 137,97.8333 136,97.8333 135,96.5C 133.395,99.2735 131.228,99.9402 128.5,98.5C 129.5,97.1667 130.5,95.8333 131.5,94.5C 130.167,94.1667 128.833,93.8333 127.5,93.5C 126.855,92.2679 126.689,90.9346 127,89.5C 123.827,92.07 123.994,94.57 127.5,97C 127.056,98.7618 126.556,98.5951 126,96.5C 125.311,97.3567 124.478,98.0233 123.5,98.5C 121.397,96.1201 120.23,96.7868 120,100.5C 119.527,96.3882 120.027,92.3882 121.5,88.5 Z"/></g>
<g><path style="opacity:1" fill="#323139" d="M 111.5,67.5 C 112.234,68.7079 112.567,70.0413 112.5,71.5C 109.026,66.8693 104.693,63.0359 99.5,60C 95.7636,59.3901 92.0969,59.7235 88.5,61C 86.9499,63.5255 84.7832,65.3588 82,66.5C 81.2797,68.1124 81.4464,69.6124 82.5,71C 81.2289,73.5539 80.5623,76.3872 80.5,79.5C 80.8333,82.1667 81.1667,84.8333 81.5,87.5C 83.4992,88.5076 85.1658,89.841 86.5,91.5C 86.5,92.1667 86.5,92.8333 86.5,93.5C 79.8884,89.9675 76.5551,84.3009 76.5,76.5C 78.4728,65.8605 84.8061,59.5272 95.5,57.5C 102.477,58.3161 107.81,61.6495 111.5,67.5 Z"/></g>
<g><path style="opacity:1" fill="#c9c7c2" d="M 43.5,61.5 C 44.4959,61.4142 45.3292,61.7476 46,62.5C 46.5374,65.1872 46.0374,67.6872 44.5,70C 45.158,72.7268 46.3246,75.2268 48,77.5C 48.6924,76.9747 49.1924,76.3081 49.5,75.5C 48.7582,73.6503 47.7582,72.9836 46.5,73.5C 47.1054,71.5188 48.1054,71.1854 49.5,72.5C 50.2811,71.2713 50.7811,69.938 51,68.5C 52.2022,70.553 52.5356,72.553 52,74.5C 53.2975,75.7836 54.4642,75.6169 55.5,74C 54.1667,73.3333 54.1667,72.6667 55.5,72C 54.8333,71.6667 54.1667,71.3333 53.5,71C 56.2494,69.6538 56.5828,68.3204 54.5,67C 55.9437,66.2195 57.277,66.3861 58.5,67.5C 58.277,68.9667 57.9437,70.4667 57.5,72C 58.5,72.3333 59.5,72.6667 60.5,73C 57.9683,73.6122 57.1349,75.1122 58,77.5C 59.4194,76.5399 60.9194,75.7065 62.5,75C 61.3595,74.2588 61.3595,73.4255 62.5,72.5C 61.624,71.7492 60.624,71.2492 59.5,71C 61.9343,69.6513 62.7676,67.818 62,65.5C 62.956,66.5786 63.7894,67.7453 64.5,69C 65.4491,69.6172 66.2825,69.4506 67,68.5C 67.1667,68.8333 67.3333,69.1667 67.5,69.5C 63.5699,70.5627 63.5699,71.5627 67.5,72.5C 67.4226,73.7498 66.756,74.5831 65.5,75C 66.3802,76.3561 66.7135,77.8561 66.5,79.5C 67.4328,83.9645 68.7661,88.2979 70.5,92.5C 67.041,93.4973 63.7077,94.664 60.5,96C 59.6598,94.3335 60.1598,94.1669 62,95.5C 63.5644,93.6303 63.5644,91.6303 62,89.5C 61.6905,90.7659 61.1905,91.9326 60.5,93C 58.925,92.621 57.425,92.7877 56,93.5C 55.8782,91.8314 56.2115,90.1647 57,88.5C 57.2492,89.624 57.7492,90.624 58.5,91.5C 59.6139,90.277 59.7805,88.9437 59,87.5C 58.0351,84.3055 56.2017,82.9722 53.5,83.5C 57.3107,84.7376 57.3107,85.4042 53.5,85.5C 54.0138,87.5116 54.1805,89.5116 54,91.5C 53.6924,90.6919 53.1924,90.0253 52.5,89.5C 50.3227,90.5042 49.9893,89.8375 51.5,87.5C 49.6184,85.6901 47.6184,84.0235 45.5,82.5C 45.9402,83.9525 45.2735,85.1192 43.5,86C 43.8333,86.3333 44.1667,86.6667 44.5,87C 43.2625,87.2321 42.2625,87.7321 41.5,88.5C 40.7321,87.7375 40.2321,86.7375 40,85.5C 39.3333,86.8333 38.6667,86.8333 38,85.5C 37.5439,86.7441 38.0439,87.5774 39.5,88C 38.552,88.4828 37.552,88.6495 36.5,88.5C 36.5198,86.857 35.8532,85.5237 34.5,84.5C 35.6682,83.0944 35.3348,81.9277 33.5,81C 36.7423,80.7167 37.0756,79.8834 34.5,78.5C 35.2624,78.0894 36.2624,77.9227 37.5,78C 36.3595,77.2588 36.3595,76.4255 37.5,75.5C 36.8333,75.1667 36.1667,74.8333 35.5,74.5C 37.6257,71.6865 38.9591,68.5199 39.5,65C 40.4098,63.251 41.7431,62.0843 43.5,61.5 Z"/></g>
<g><path style="opacity:1" fill="#f7f7ee" d="M 127.5,62.5 C 126.103,62.7952 124.603,63.1286 123,63.5C 120.23,67.8291 121.063,70.9958 125.5,73C 124.552,73.4828 123.552,73.6495 122.5,73.5C 122.464,76.461 123.464,78.7943 125.5,80.5C 126.773,81.0768 126.773,81.7435 125.5,82.5C 124.391,81.4104 123.391,81.4104 122.5,82.5C 123.093,84.3817 123.76,86.2151 124.5,88C 123.552,88.4828 122.552,88.6495 121.5,88.5C 121.158,87.6618 120.492,87.3284 119.5,87.5C 119.343,86.1266 119.51,84.7932 120,83.5C 120.333,83.8333 120.667,84.1667 121,84.5C 120.045,80.6062 119.045,76.6062 118,72.5C 116.532,69.8579 114.365,68.1912 111.5,67.5C 107.81,61.6495 102.477,58.3161 95.5,57.5C 84.8061,59.5272 78.4728,65.8605 76.5,76.5C 76.5551,84.3009 79.8884,89.9675 86.5,93.5C 88.3907,95.8357 88.8907,98.5024 88,101.5C 85.2547,111.232 82.4214,120.898 79.5,130.5C 78.7777,131.551 77.7777,132.218 76.5,132.5C 72.6618,132.993 70.6618,131.326 70.5,127.5C 72.63,120.443 74.9634,113.443 77.5,106.5C 77.1822,105.353 76.5156,104.519 75.5,104C 76.5,103.167 77.5,102.333 78.5,101.5C 77.1455,99.4788 75.4788,97.8121 73.5,96.5C 73.2624,94.5956 72.2624,93.2623 70.5,92.5C 68.7661,88.2979 67.4328,83.9645 66.5,79.5C 69.1667,79.5 71.8333,79.5 74.5,79.5C 74.2338,75.3951 74.7338,71.3951 76,67.5C 81.819,60.47 89.1523,56.47 98,55.5C 102.596,55.6088 107.096,56.2755 111.5,57.5C 111.5,55.5 111.5,53.5 111.5,51.5C 115.187,49.81 115.854,50.31 113.5,53C 116.681,55.3569 118.514,58.5236 119,62.5C 119.419,61.3279 120.085,60.3279 121,59.5C 120.805,61.1261 120.805,62.7928 121,64.5C 122.634,60.892 124.801,60.2254 127.5,62.5 Z"/></g>
<g><path style="opacity:1" fill="#2f2f45" d="M 112.5,71.5 C 113.496,79.1698 111.829,86.1698 107.5,92.5C 100.543,91.6136 93.5433,91.2803 86.5,91.5C 85.1658,89.841 83.4992,88.5076 81.5,87.5C 81.1667,84.8333 80.8333,82.1667 80.5,79.5C 80.5623,76.3872 81.2289,73.5539 82.5,71C 81.4464,69.6124 81.2797,68.1124 82,66.5C 84.7832,65.3588 86.9499,63.5255 88.5,61C 92.0969,59.7235 95.7636,59.3901 99.5,60C 104.693,63.0359 109.026,66.8693 112.5,71.5 Z"/></g>
<g><path style="opacity:1" fill="#d5d4cd" d="M 147.5,66.5 C 147.631,67.3764 147.298,68.0431 146.5,68.5C 143.491,67.0581 141.824,68.0581 141.5,71.5C 140.761,71.369 140.094,71.5357 139.5,72C 140.711,72.8928 140.711,73.7261 139.5,74.5C 137.843,73.2676 136.176,72.4342 134.5,72C 134.64,73.0695 134.64,74.2361 134.5,75.5C 133.167,74.5 131.833,73.5 130.5,72.5C 130.167,72.8333 129.833,73.1667 129.5,73.5C 131.074,74.9842 132.407,76.6508 133.5,78.5C 133.167,78.8333 132.833,79.1667 132.5,79.5C 131.676,77.2524 130.676,77.0858 129.5,79C 131.26,79.9653 131.594,81.132 130.5,82.5C 129.335,81.5089 128.168,80.5089 127,79.5C 126.235,79.5699 125.735,79.9033 125.5,80.5C 123.464,78.7943 122.464,76.461 122.5,73.5C 123.552,73.6495 124.552,73.4828 125.5,73C 121.063,70.9958 120.23,67.8291 123,63.5C 124.603,63.1286 126.103,62.7952 127.5,62.5C 129.003,63.6816 130.67,64.1816 132.5,64C 131.809,62.9326 131.309,61.7659 131,60.5C 130.346,61.6956 129.846,61.6956 129.5,60.5C 131.818,59.1656 133.485,59.8323 134.5,62.5C 135.471,59.8789 136.804,57.5456 138.5,55.5C 137.984,56.7582 138.65,57.7582 140.5,58.5C 141.258,57.1886 142.258,56.6886 143.5,57C 143.043,57.414 142.709,57.914 142.5,58.5C 143.491,60.3231 144.824,61.8231 146.5,63C 145.167,64.8402 145.334,65.3402 147,64.5C 147.464,65.0944 147.631,65.7611 147.5,66.5 Z"/></g>
<g><path style="opacity:1" fill="#fbfae4" d="M 111.5,51.5 C 111.5,53.5 111.5,55.5 111.5,57.5C 107.096,56.2755 102.596,55.6088 98,55.5C 89.1523,56.47 81.819,60.47 76,67.5C 74.7338,71.3951 74.2338,75.3951 74.5,79.5C 71.8333,79.5 69.1667,79.5 66.5,79.5C 66.7135,77.8561 66.3802,76.3561 65.5,75C 66.756,74.5831 67.4226,73.7498 67.5,72.5C 68.5109,70.5976 68.6776,68.5976 68,66.5C 67.6667,66.8333 67.3333,67.1667 67,67.5C 66.7398,65.3825 65.7398,63.7158 64,62.5C 62.5123,64.2673 61.0123,64.6006 59.5,63.5C 61.0801,60.8901 62.7468,58.3901 64.5,56C 63.4366,54.8118 62.1033,54.3118 60.5,54.5C 60.4944,57.8502 59.4944,60.8502 57.5,63.5C 56.7158,60.9515 55.5492,58.6181 54,56.5C 53.1072,57.7112 52.2739,57.7112 51.5,56.5C 52.1279,54.7419 53.1279,53.2419 54.5,52C 53.6433,51.3109 52.9767,50.4776 52.5,49.5C 53.8333,48.5 53.8333,47.5 52.5,46.5C 52.9186,45.3279 53.5853,44.3279 54.5,43.5C 56.1012,44.1654 57.6012,44.4988 59,44.5C 60.1096,42.9632 61.6096,42.2965 63.5,42.5C 63.7135,40.8561 63.3802,39.3561 62.5,38C 62.9981,36.8419 63.8315,36.0085 65,35.5C 70.0312,34.1571 75.0312,32.8238 80,31.5C 82.3536,32.2135 84.8536,32.2135 87.5,31.5C 89.5925,31.4858 91.4259,32.1524 93,33.5C 94.0195,32.3128 95.1861,31.3128 96.5,30.5C 102.378,31.7579 104.044,34.9246 101.5,40C 103.085,42.2562 103.752,44.7562 103.5,47.5C 105.597,47.0033 107.43,46.67 109,46.5C 109.374,48.4913 110.207,50.158 111.5,51.5 Z"/></g>
<g><path style="opacity:1" fill="#21222e" d="M 189.5,172.5 C 189.5,176.167 189.5,179.833 189.5,183.5C 181.493,183.666 173.493,183.5 165.5,183C 164.956,182.283 164.289,181.783 163.5,181.5C 161.575,177.617 162.575,174.784 166.5,173C 174.159,172.5 181.826,172.334 189.5,172.5 Z"/></g>
<g><path style="opacity:1" fill="#1f1f30" d="M -0.5,172.5 C 8.50617,172.334 17.5062,172.5 26.5,173C 29.6696,177.454 28.6696,180.787 23.5,183C 15.5069,183.5 7.50694,183.666 -0.5,183.5C -0.5,179.833 -0.5,176.167 -0.5,172.5 Z"/></g>
</svg>
